<?xml version="1.0" standalone="no"?>
<!DOCTYPE svg PUBLIC "-//W3C//DTD SVG 20010904//EN"
 "http://www.w3.org/TR/2001/REC-SVG-20010904/DTD/svg10.dtd">
<svg version="1.0" xmlns="http://www.w3.org/2000/svg"
 width="224.000000pt" height="224.000000pt" viewBox="0 0 224.000000 224.000000"
 preserveAspectRatio="xMidYMid meet">

<g transform="translate(0.000000,224.000000) scale(0.100000,-0.100000)"
fill="#000000" stroke="none">
<path d="M1084 2026 c-34 -15 -64 -51 -63 -76 0 -8 5 -3 11 13 5 15 14 27 19
27 6 0 6 -8 -1 -19 -5 -11 -10 -37 -11 -58 0 -30 -2 -34 -9 -18 -7 15 -9 16
-9 4 -1 -9 8 -28 19 -42 24 -30 25 -37 5 -37 -8 0 -33 -7 -55 -16 -36 -15 -40
-19 -40 -53 l0 -36 172 3 c119 2 170 0 163 -7 -6 -6 -76 -12 -165 -13 l-155
-3 46 -22 c27 -13 54 -20 68 -16 21 5 22 3 19 -37 -2 -31 -8 -44 -19 -46 -45
-6 -139 -39 -178 -62 -97 -57 -187 -181 -206 -284 -7 -37 -25 -53 -25 -23 0 8
-8 15 -17 14 -11 0 -13 -3 -5 -6 22 -9 12 -20 -19 -21 -17 0 -34 -3 -37 -6 -5
-6 47 -10 81 -7 9 1 17 -3 17 -8 0 -7 -19 -10 -48 -8 -34 2 -49 -1 -49 -10 0
-12 36 -18 80 -14 9 1 17 -2 17 -8 0 -5 -18 -10 -39 -9 -22 0 -44 -3 -50 -6
-23 -15 -9 -21 39 -18 29 3 50 0 50 -6 0 -6 -21 -10 -46 -10 -25 0 -48 -3 -51
-6 -4 -3 3 -6 15 -6 16 0 22 -6 23 -22 1 -22 1 -22 8 2 7 24 7 24 20 5 9 -15
11 -16 7 -2 -3 10 0 17 8 17 8 0 17 -16 21 -37 18 -99 103 -220 193 -277 45
-28 155 -68 190 -68 15 0 22 -6 22 -20 0 -12 -4 -17 -12 -12 -10 6 -10 4 0 -7
18 -19 15 -49 -5 -50 -11 0 -13 -3 -5 -6 20 -8 -17 -60 -57 -79 -60 -28 -167
2 -283 79 l-46 31 55 63 c54 61 57 63 75 46 14 -12 17 -13 13 -2 -6 15 -66 54
-62 39 1 -4 -20 -33 -46 -64 -56 -65 -60 -65 -108 19 -36 62 -36 71 -2 82 l27
9 -45 31 c-53 37 -97 78 -127 116 l-21 29 -7 -27 c-10 -42 1 -207 18 -245 l15
-35 13 28 c7 15 16 27 19 26 3 0 27 -34 54 -75 l48 -76 -52 -59 c-48 -56 -59
-89 -28 -89 7 0 9 3 6 7 -9 9 13 34 24 27 5 -3 8 0 7 8 -2 7 2 12 8 11 6 -1
24 12 40 30 16 17 21 25 12 18 -11 -8 -18 -9 -18 -3 0 26 24 20 66 -17 77 -67
144 -107 249 -146 114 -42 142 -60 175 -108 l24 -35 42 47 c44 49 62 59 202
112 83 31 144 70 215 137 l37 36 41 -39 c62 -61 69 -87 8 -30 l-54 50 52 -55
c49 -51 54 -53 69 -38 16 15 13 21 -40 76 l-57 59 50 72 c27 40 52 73 56 74 4
1 13 -9 20 -23 l13 -25 12 30 c21 53 32 148 25 213 l-7 64 -49 -55 c-27 -30
-69 -68 -94 -84 -51 -32 -55 -40 -21 -49 22 -5 24 -9 15 -32 -6 -15 -24 -49
-41 -75 l-31 -48 -58 57 -58 57 38 46 c45 54 85 125 58 102 -15 -12 -17 -11
-18 5 0 14 -2 15 -6 4 -3 -8 -22 -35 -41 -60 -19 -25 -29 -39 -22 -33 8 7 18
13 22 13 19 0 5 -25 -38 -65 -27 -26 -38 -42 -27 -39 13 4 34 -11 72 -51 l54
-57 -29 -24 c-71 -59 -226 -113 -282 -99 -14 3 -41 22 -59 42 -29 30 -32 37
-19 47 8 6 16 22 18 36 2 14 12 31 23 38 19 12 19 13 -2 7 -13 -4 -23 -2 -23
2 0 5 27 17 60 27 151 45 278 178 308 322 4 21 14 40 21 42 10 3 12 -1 8 -17
-3 -11 -1 -19 4 -15 5 3 9 -1 10 -8 0 -7 5 -1 10 14 6 16 19 28 32 30 20 3 22
9 22 58 0 49 -2 55 -22 58 -14 2 -23 10 -23 20 0 24 -29 101 -30 78 0 -14 -3
-16 -14 -7 -11 9 -12 6 -8 -15 3 -19 7 -22 13 -12 7 11 11 10 19 -2 5 -8 10
-24 10 -35 l-1 -20 -15 20 c-16 20 -16 19 -9 -4 5 -17 3 -22 -5 -19 -7 2 -19
29 -27 58 -39 153 -195 296 -346 316 l-45 6 0 44 c-1 55 16 58 20 4 l3 -40 30
21 c17 11 23 19 15 18 -53 -6 -54 23 -2 45 56 23 69 37 74 80 4 36 2 39 -36
56 -23 10 -50 21 -60 25 -18 5 -18 6 2 28 79 85 -17 220 -124 173z m80 -62
c34 -34 9 -94 -39 -94 -24 0 -55 33 -55 59 0 42 63 66 94 35z m39 -66 c-9 -20
-10 -16 -10 22 0 38 1 42 10 23 7 -16 7 -30 0 -45z m-61 -125 c-123 -3 -154
-6 -158 -18 -9 -22 -24 -18 -24 5 0 19 6 20 168 18 l167 -2 -153 -3z m-2 -159
c0 -32 -4 -44 -12 -42 -7 3 -15 13 -16 23 -3 11 0 15 8 10 9 -6 9 -2 1 14 -12
22 -7 41 10 41 5 0 9 -21 9 -46z m28 -97 c16 -41 11 -57 -12 -38 -8 7 -25 9
-40 5 -26 -6 -26 -6 -14 22 27 65 43 68 66 11z m-88 -7 c0 -43 -14 -54 -24
-17 -10 37 -7 57 9 57 11 0 15 -11 15 -40z m144 34 c9 -3 16 -16 16 -28 1 -20
2 -20 14 -3 7 9 16 17 20 17 7 0 -1 -57 -10 -72 -8 -13 -34 4 -34 23 0 10 -4
19 -10 19 -5 0 -10 -7 -10 -15 0 -8 -4 -15 -10 -15 -5 0 -10 4 -10 9 0 14 12
71 15 71 2 0 10 -3 19 -6z m-185 -36 c12 -34 -2 -67 -15 -35 -9 23 -24 21 -24
-3 0 -11 -5 -20 -10 -20 -14 0 -32 50 -25 68 5 13 8 12 19 -3 9 -13 15 -15 20
-7 4 7 4 17 1 22 -3 6 0 10 8 10 8 0 20 -14 26 -32z m-103 -14 c-4 -9 0 -27 9
-40 10 -15 11 -25 4 -29 -10 -7 -38 21 -39 39 0 4 -7 6 -15 2 -26 -10 -16 13
13 28 35 19 35 19 28 0z m405 6 c10 -6 19 -18 19 -27 0 -14 -2 -14 -20 2 -23
21 -27 9 -5 -15 14 -15 14 -19 1 -29 -19 -16 -56 2 -56 27 1 15 2 15 15 -2 8
-11 18 -17 22 -13 3 4 -1 15 -9 24 -16 19 -14 43 3 43 6 0 19 -5 30 -10z
m-456 -67 c27 -32 17 -60 -15 -43 -29 15 -35 12 -16 -9 28 -31 2 -33 -28 -2
-23 24 -25 30 -12 40 12 10 20 10 38 0 22 -12 23 -11 5 8 -9 11 -14 23 -10 26
10 10 12 9 38 -20z m355 2 c24 -9 59 -27 78 -42 l34 -26 -49 -21 c-28 -12 -57
-27 -65 -34 -12 -9 -23 -10 -42 -2 -15 5 -38 7 -52 4 -18 -5 -24 -2 -24 10 0
19 59 23 91 6 15 -8 19 -7 19 4 0 59 -173 35 -287 -39 l-22 -15 25 -57 c14
-32 27 -59 29 -61 2 -2 24 7 50 20 l46 24 -37 0 c-57 0 -85 55 -47 96 32 35
113 9 113 -37 0 -22 27 -18 33 5 4 16 14 20 52 20 25 0 66 9 91 20 93 43 91
43 119 6 37 -49 55 -110 55 -191 l0 -73 -112 -63 c-62 -35 -130 -72 -152 -81
l-41 -17 35 0 c21 0 56 12 90 31 30 17 79 44 108 61 l54 29 -20 -39 c-24 -47
-101 -119 -147 -139 -85 -35 -205 -41 -205 -9 0 7 -9 15 -19 18 -14 3 -18 1
-14 -9 8 -21 -6 -17 -64 16 -212 122 -215 434 -5 557 91 54 184 63 282 28z
m205 -25 c9 -10 15 -26 12 -35 -7 -17 -33 -20 -42 -5 -4 6 -15 8 -26 5 -26 -9
-24 12 4 36 28 23 30 23 52 -1z m-624 -47 c30 -18 35 -28 20 -37 -10 -7 -61
31 -61 45 0 13 8 11 41 -8z m289 -21 c0 -13 -12 -22 -22 -16 -10 6 -1 24 13
24 5 0 9 -4 9 -8z m386 -3 c7 -12 -25 -60 -45 -67 -7 -2 -12 2 -10 9 3 28 -1
39 -16 39 -16 0 -20 12 -8 23 11 11 71 8 79 -4z m-706 -9 c0 -5 9 -10 21 -10
12 0 19 -5 16 -12 -2 -7 -11 -12 -21 -10 -18 3 -22 -14 -4 -20 6 -2 8 -10 4
-16 -5 -9 -15 -8 -39 4 -43 22 -42 20 -23 49 16 25 46 35 46 15z m170 -60 c0
-5 -4 -10 -10 -10 -5 0 -10 5 -10 10 0 6 5 10 10 10 6 0 10 -4 10 -10z m570 1
c0 -5 -14 -14 -31 -20 -38 -13 -29 -35 11 -26 40 9 47 -11 9 -24 -22 -8 -36
-8 -44 -1 -16 13 -25 45 -16 57 12 20 71 31 71 14z m-756 -24 c38 -27 -2 -95
-41 -71 -25 16 -29 55 -7 71 10 7 21 13 24 13 3 0 14 -6 24 -13z m220 -68 c-3
-5 -10 -7 -15 -3 -5 3 -7 10 -3 15 3 5 10 7 15 3 5 -3 7 -10 3 -15z m636 -1
c18 3 30 0 30 -7 0 -6 -19 -11 -45 -11 -25 0 -45 4 -45 9 0 11 24 21 28 11 1
-3 16 -4 32 -2z m-80 -8 c0 -5 -13 -10 -30 -10 -23 0 -30 -4 -30 -20 0 -11 -4
-20 -10 -20 -5 0 -10 14 -10 30 0 28 2 30 40 30 22 0 40 -4 40 -10z m-826 -35
c-5 -20 -2 -25 13 -25 27 0 35 10 21 27 -13 16 -2 31 13 16 15 -15 7 -54 -13
-67 -33 -20 -69 21 -54 60 9 25 27 16 20 -11z m936 -5 c0 -6 -20 -10 -45 -10
-25 0 -45 4 -45 9 0 5 20 9 45 9 25 1 45 -3 45 -8z m-110 -35 c0 -16 -20 -19
-57 -9 -37 10 -26 24 17 24 29 0 40 -4 40 -15z m110 -5 c0 -6 -20 -10 -45 -10
-25 0 -45 4 -45 9 0 5 20 9 45 9 25 1 45 -3 45 -8z m-169 -33 c-6 -6 -11 -16
-11 -21 0 -6 9 0 19 13 10 13 23 21 30 17 14 -9 15 -53 0 -61 -17 -11 -23 3
-9 20 7 8 9 15 5 15 -4 0 -15 -10 -24 -22 -21 -25 -41 -17 -41 16 0 25 19 48
32 39 6 -3 5 -10 -1 -16z m-701 -17 c0 -5 -2 -10 -4 -10 -3 0 -8 5 -11 10 -3
6 -1 10 4 10 6 0 11 -4 11 -10z m17 -46 c16 -26 16 -27 -6 -45 -28 -23 -35
-23 -55 -3 -19 19 -22 58 -3 51 6 -2 11 -11 9 -21 -2 -10 4 -16 17 -16 27 0
38 20 17 32 -18 10 -22 28 -6 28 5 0 17 -12 27 -26z m694 -21 c22 6 22 8 8
-32 -6 -17 -15 -31 -21 -31 -6 0 -7 7 -4 15 4 10 -3 20 -19 27 -14 6 -25 17
-25 25 0 11 4 11 21 2 12 -6 30 -9 40 -6z m-44 -58 c22 -45 10 -58 -40 -44
-41 11 -48 24 -17 32 12 3 20 14 20 26 0 32 18 25 37 -14z m-617 15 c0 -5 -2
-10 -4 -10 -3 0 -8 5 -11 10 -3 6 -1 10 4 10 6 0 11 -4 11 -10z m41 -41 c8
-15 8 -24 0 -32 -8 -8 -11 -6 -11 5 0 9 -4 20 -10 23 -6 4 -7 -5 -4 -23 8 -37
-11 -50 -37 -26 -20 18 -26 44 -9 44 6 0 10 -7 10 -15 0 -8 5 -15 10 -15 7 0
7 7 0 20 -6 11 -8 25 -5 30 11 17 44 11 56 -11z m889 -24 c-7 -20 -9 -53 -6
-73 3 -20 3 -31 0 -24 -11 25 -30 10 -66 -51 -79 -134 -199 -235 -337 -283
-76 -26 -198 -44 -188 -27 4 6 32 13 62 17 74 8 186 48 246 87 65 42 160 144
203 221 37 66 35 87 -8 89 -11 1 -3 5 20 10 32 8 45 17 60 44 23 43 30 38 14
-10z m-1242 -22 c9 -7 30 -13 46 -13 l31 -1 -32 -14 c-38 -16 -37 -19 14 -106
71 -123 212 -232 352 -273 85 -25 126 -22 150 13 12 16 21 34 21 39 0 6 5 14
10 17 6 4 10 -31 10 -97 l0 -103 -19 31 c-25 42 -59 64 -96 64 -47 0 -185 53
-247 94 -77 51 -176 158 -217 235 l-34 64 -19 -24 -19 -24 8 30 c9 38 9 62 0
100 l-8 30 17 -25 c9 -14 24 -31 32 -37z m1012 18 c-10 -20 -30 -29 -30 -13 0
4 8 18 17 32 19 27 30 12 13 -19z m-185 -35 c18 7 14 -28 -4 -42 -11 -9 -18
-8 -30 3 -11 12 -12 16 -1 23 7 4 9 13 5 21 -6 11 -5 11 5 2 7 -6 18 -9 25 -7z
m-392 -26 c6 0 2 -6 -8 -14 -25 -18 -54 -10 -48 14 6 22 37 31 41 13 2 -7 8
-13 15 -13z m317 -35 c0 -33 -33 -51 -54 -29 -21 20 -20 51 1 63 25 13 53 -5
53 -34z m-236 -13 c-9 -42 -31 -42 -30 1 1 33 15 52 29 38 4 -4 4 -22 1 -39z
m74 29 c8 -5 12 -21 10 -37 -2 -22 -9 -30 -27 -32 -13 -2 -28 2 -35 9 -8 9 -6
10 11 6 13 -3 26 -1 29 4 3 5 -4 9 -15 9 -26 0 -36 17 -21 35 14 17 29 19 48
6z m72 -8 c0 -10 3 -28 6 -40 5 -17 2 -23 -10 -23 -10 0 -16 9 -16 24 0 13 -6
27 -12 29 -10 4 -9 8 2 16 22 15 30 13 30 -6z m-50 -104 c0 -13 -4 -18 -12
-13 -10 6 -10 4 0 -7 17 -18 15 -49 -3 -49 -11 0 -15 11 -15 38 0 21 3 42 7
45 12 13 23 7 23 -14z m38 -24 c0 -25 -4 -45 -9 -45 -5 0 -9 20 -9 45 0 25 4
45 9 45 5 0 9 -20 9 -45z m-568 -119 c0 -2 -8 -10 -17 -17 -16 -13 -17 -12 -4
4 13 16 21 21 21 13z"/>
<path d="M1285 1283 c-30 -15 -70 -27 -99 -29 -27 -1 -52 -8 -56 -15 -5 -6
-15 -9 -23 -6 -9 3 -18 -1 -21 -9 -5 -12 -1 -14 17 -8 12 4 48 8 79 9 31 1 63
6 70 12 7 6 34 18 61 28 26 10 47 24 47 31 0 20 -18 17 -75 -13z"/>
<path d="M1010 1283 c-20 -14 -29 -40 -10 -28 5 3 18 -3 29 -14 20 -20 21 -18
48 40 6 14 -48 15 -67 2z"/>
<path d="M896 1246 c9 -23 33 -28 27 -5 -3 10 -11 19 -19 19 -7 0 -11 -6 -8
-14z"/>
<path d="M1330 1243 c-8 -3 -35 -14 -60 -26 -25 -11 -70 -21 -100 -22 -55 -2
-190 -54 -190 -73 0 -20 15 -19 77 10 36 16 88 31 117 33 29 2 68 13 87 23 19
11 51 25 72 32 20 6 37 16 37 21 0 10 -16 11 -40 2z"/>
<path d="M1307 1176 c-32 -13 -63 -28 -70 -34 -6 -5 -39 -12 -72 -14 -67 -5
-165 -43 -165 -64 0 -19 9 -18 76 13 36 16 79 27 109 28 32 1 69 12 102 28 29
15 59 27 67 27 19 0 31 19 20 30 -5 5 -34 -1 -67 -14z"/>
<path d="M920 1166 c0 -8 7 -16 15 -20 9 -3 15 0 15 8 0 8 -7 16 -15 20 -9 3
-15 0 -15 -8z"/>
<path d="M1360 1133 c-8 -3 -37 -17 -65 -30 -33 -17 -70 -26 -110 -27 -73 -3
-184 -53 -169 -77 3 -5 31 5 63 22 68 35 125 47 144 30 11 -8 30 -3 81 24 37
19 74 35 83 35 8 0 13 5 11 12 -5 14 -18 18 -38 11z"/>
<path d="M947 1080 c3 -11 12 -20 19 -20 20 0 17 18 -5 29 -16 9 -18 8 -14 -9z"/>
<path d="M1314 1051 c-43 -22 -80 -36 -82 -31 -11 31 -189 -31 -201 -69 -2
-10 12 -5 43 13 25 15 51 24 56 21 5 -3 23 1 39 10 33 17 51 19 51 7 0 -4 -20
-18 -45 -30 -25 -12 -45 -29 -45 -38 0 -22 27 -12 140 51 52 30 107 59 123 66
27 12 32 29 11 36 -6 2 -46 -14 -90 -36z"/>
<path d="M970 1000 c0 -5 10 -14 22 -21 18 -10 20 -9 15 6 -4 9 -7 19 -7 21 0
2 -7 4 -15 4 -8 0 -15 -4 -15 -10z"/>
<path d="M1000 915 c0 -8 2 -15 4 -15 2 0 12 -3 20 -6 12 -4 15 -2 10 9 -8 21
-34 30 -34 12z"/>
<path d="M1420 1400 c0 -5 5 -10 11 -10 5 0 7 5 4 10 -3 6 -8 10 -11 10 -2 0
-4 -4 -4 -10z"/>
<path d="M760 1310 c0 -5 5 -10 11 -10 5 0 7 5 4 10 -3 6 -8 10 -11 10 -2 0
-4 -4 -4 -10z"/>
<path d="M730 1216 c0 -15 24 -28 34 -19 13 14 5 33 -14 33 -11 0 -20 -6 -20
-14z"/>
<path d="M1430 900 c0 -5 5 -10 11 -10 5 0 7 5 4 10 -3 6 -8 10 -11 10 -2 0
-4 -4 -4 -10z"/>
<path d="M1238 785 c-8 -9 3 -45 13 -45 5 0 9 6 9 13 0 17 -15 39 -22 32z"/>
<path d="M1090 760 c0 -5 5 -10 10 -10 6 0 10 5 10 10 0 6 -4 10 -10 10 -5 0
-10 -4 -10 -10z"/>
<path d="M519 1817 c-91 -76 -106 -94 -93 -115 26 -41 214 -202 236 -202 13 0
40 -5 61 -11 30 -8 37 -14 32 -27 -5 -13 -2 -13 15 3 16 15 20 15 20 3 0 -22
-37 -53 -43 -36 -4 11 -7 10 -18 -1 -9 -9 -9 -11 -1 -7 7 5 12 1 12 -9 0 -27
-19 -55 -34 -49 -15 6 -37 -24 -35 -48 0 -7 5 -1 10 14 7 17 16 25 24 22 8 -4
23 9 38 33 13 21 32 44 41 52 9 7 16 24 16 37 0 12 10 30 22 38 31 22 35 10 7
-21 l-24 -27 31 24 c17 14 40 31 50 38 17 11 16 11 -3 2 -30 -14 -30 4 -1 24
28 20 39 20 32 2 -4 -11 0 -13 17 -9 13 4 18 8 11 11 -19 6 -14 20 9 27 11 4
19 9 16 11 -7 8 -78 -26 -129 -62 -59 -42 -68 -37 -68 42 0 45 -5 59 -41 105
-23 30 -64 84 -91 122 -28 37 -51 67 -52 67 -1 0 -31 -24 -67 -53z m16 -187
c49 -49 86 -90 81 -90 -11 0 -176 161 -176 172 0 4 1 8 3 8 1 0 43 -40 92 -90z
m137 -28 c24 -23 42 -32 53 -28 13 4 15 2 10 -13 -3 -11 -1 -22 5 -26 5 -3 15
-16 21 -27 12 -21 11 -21 -16 0 -17 14 -36 20 -47 17 -13 -5 -16 -2 -12 10 4
10 -4 28 -22 48 -17 18 -38 43 -49 57 -20 25 -20 25 0 10 11 -7 37 -29 57 -48z"/>
<path d="M1603 1783 c-113 -144 -115 -148 -121 -220 -4 -58 -7 -64 -24 -59
-19 4 -19 3 -3 -14 11 -12 13 -19 5 -22 -7 -2 3 -21 24 -47 20 -23 36 -37 36
-29 0 7 12 1 25 -15 31 -35 33 -24 2 12 -12 15 -27 26 -33 24 -13 -4 -50 35
-41 44 4 3 17 -2 29 -13 l23 -19 -19 22 -19 23 36 15 c20 8 47 15 59 15 36 1
60 18 163 119 l96 94 -48 50 c-26 27 -64 62 -85 78 l-36 29 -69 -87z m-5 -47
c-40 -53 -75 -91 -76 -86 -4 12 138 193 145 186 3 -3 -28 -48 -69 -100z m28
-126 c-25 -27 -46 -59 -46 -71 0 -16 -4 -19 -17 -15 -10 4 -26 -3 -45 -21 -15
-15 -28 -22 -28 -16 0 5 9 18 21 29 12 11 19 27 16 40 -3 16 0 20 14 17 12 -3
35 11 66 41 64 61 78 59 19 -4z"/>
<path d="M1057 1610 c-3 -11 -1 -20 4 -20 5 0 9 5 9 11 0 5 6 7 13 3 8 -5 8
-2 -2 9 -17 21 -18 21 -24 -3z"/>
<path d="M1000 1612 c-8 -4 -16 -16 -17 -27 -1 -19 -1 -19 15 2 9 11 24 23 32
26 13 5 13 5 0 6 -8 0 -22 -3 -30 -7z"/>
<path d="M1270 1600 c12 -8 12 -12 2 -18 -9 -6 -6 -12 13 -20 36 -16 45 -14
15 3 l-25 14 25 0 c31 1 55 -13 46 -27 -3 -5 2 -16 12 -23 15 -13 16 -12 4 3
-11 14 -10 17 4 20 12 2 5 9 -22 22 -21 10 -47 23 -56 27 -24 12 -36 11 -18
-1z"/>
<path d="M1405 1530 c10 -11 20 -20 23 -20 3 0 -3 9 -13 20 -10 11 -20 20 -23
20 -3 0 3 -9 13 -20z"/>
<path d="M1381 1518 c2 -2 18 -14 34 -28 l30 -25 -24 28 c-14 15 -29 27 -34
27 -6 0 -8 -1 -6 -2z"/>
<path d="M705 1399 c-4 -6 -5 -12 -2 -15 2 -3 7 2 10 11 7 17 1 20 -8 4z"/>
<path d="M1530 1355 c15 -25 61 -50 53 -29 -3 8 -10 14 -16 14 -6 0 -19 8 -30
18 -19 16 -19 16 -7 -3z"/>
<path d="M696 1312 c-4 -11 -14 -19 -23 -18 -9 0 -18 -6 -20 -14 -4 -12 -3
-13 5 -1 5 7 15 11 20 7 11 -7 38 32 29 41 -3 2 -8 -4 -11 -15z"/>
<path d="M641 1244 c0 -11 3 -14 6 -6 3 7 2 16 -1 19 -3 4 -6 -2 -5 -13z"/>
<path d="M671 1016 c-1 -15 -4 -16 -15 -7 -12 10 -13 7 -6 -21 11 -49 21 -68
33 -68 6 0 19 -8 30 -17 19 -18 19 -17 6 5 -8 12 -19 22 -26 22 -14 0 -33 31
-33 52 1 7 9 3 20 -11 11 -13 20 -19 20 -14 0 5 -4 13 -9 19 -5 5 -11 20 -14
34 -3 16 -5 18 -6 6z"/>
<path d="M1571 993 c-1 -12 -5 -25 -11 -28 -5 -3 -10 -11 -10 -18 0 -6 7 -2
15 9 14 18 14 18 15 -6 1 -23 2 -22 15 9 18 40 19 54 3 26 -12 -19 -12 -19
-19 5 -6 23 -7 23 -8 3z"/>
<path d="M680 906 c0 -8 37 -62 64 -93 19 -22 64 -33 51 -13 -3 5 -11 7 -18 4
-15 -5 -54 33 -44 43 4 3 17 -2 29 -13 20 -17 19 -16 -2 12 -14 17 -28 27 -31
22 -3 -5 -16 3 -28 18 -11 14 -21 24 -21 20z"/>
<path d="M1435 785 l-30 -25 32 17 c18 10 33 21 33 26 0 10 -2 9 -35 -18z"/>
<path d="M825 771 c11 -12 33 -30 50 -39 24 -13 26 -17 12 -20 -16 -3 -15 -5
5 -21 13 -10 32 -20 43 -23 11 -3 29 -9 40 -13 16 -6 17 -5 5 4 -12 9 -12 13
-2 19 9 6 6 12 -13 20 -36 17 -45 14 -15 -3 l25 -15 -35 2 c-27 2 -35 7 -34
21 1 10 -10 25 -25 34 -14 9 -37 26 -51 37 l-25 21 20 -24z"/>
<path d="M1345 720 c-3 -5 -16 -10 -28 -11 -20 0 -21 -1 -3 -8 18 -7 18 -8 -5
-24 -28 -20 -21 -22 15 -4 14 8 23 17 19 20 -3 4 0 13 7 22 7 8 10 15 7 15 -3
0 -9 -4 -12 -10z"/>
<path d="M1378 709 c-10 -10 -14 -19 -10 -19 5 0 17 9 27 20 10 11 14 20 9 19
-5 0 -17 -9 -26 -20z"/>
<path d="M1273 688 c-18 -24 -24 -38 -16 -38 4 0 13 11 20 25 12 27 11 32 -4
13z"/>
<path d="M1035 661 c-3 -6 5 -15 17 -21 21 -10 22 -10 5 4 -18 14 -18 14 0 19
15 4 16 5 1 6 -9 0 -19 -3 -23 -8z"/>
<path d="M1218 643 c7 -3 16 -2 19 1 4 3 -2 6 -13 5 -11 0 -14 -3 -6 -6z"/>
<path d="M1520 646 c0 -2 8 -10 18 -17 15 -13 16 -12 3 4 -13 16 -21 21 -21
13z"/>
</g>
</svg>
